<svg height="208.547509" viewBox="0 0 315 137" width="479.507046" xmlns="http://www.w3.org/2000/svg"><g transform="matrix(6.442113 0 0 -6.442113 -2392.02742 3022.18325)"><path d="m400.171 453.003h4.689v-4.413h-4.689zm2.954-.614c-.02.004-.041.007-.063.011l-.025.003c-.036.005-.073.009-.109.013-.025.002-.05.004-.075.005-.044.003-.088.004-.13.004-.02 0-.031 0-.05 0-.035-.001-.07-.003-.104-.005-.019-.001-.038-.003-.057-.004-.028-.003-.055-.006-.082-.009l-.023-.003-.025-.004-.032-.005c-.013-.002-.027-.005-.04-.007-.018-.003-.037-.007-.055-.011-.111-.023-.214-.055-.309-.092-.049-.019-.096-.039-.141-.061-.037-.018-.073-.037-.107-.057-.033-.02-.066-.039-.097-.06-.017-.012-.035-.024-.052-.036-.014-.01-.029-.021-.043-.032-.029-.023-.058-.046-.085-.07-.025-.022-.05-.044-.072-.067-.02-.02-.039-.04-.058-.06-.019-.021-.038-.043-.055-.065-.02-.024-.039-.049-.057-.074-.014-.019-.027-.038-.04-.058-.009-.013-.017-.026-.025-.04-.049-.08-.092-.165-.127-.257-.044-.113-.076-.236-.093-.366-.006-.041-.01-.083-.013-.125-.001-.033-.003-.066-.003-.1 0-.025 0-.05.002-.074.002-.026.004-.051.007-.076l.001-.018c.004-.03.009-.059.015-.088.002-.011.004-.023.006-.034.006-.024.011-.048.018-.071.008-.031.016-.06.026-.09.012-.035.025-.07.039-.104.023-.054.048-.106.075-.155.015-.029.031-.057.048-.083.013-.022.027-.042.041-.062.018-.027.037-.052.056-.077.02-.025.041-.049.06-.072.025-.029.051-.055.075-.079l.013-.013c.02-.02.042-.041.067-.062.017-.015.035-.03.054-.045.018-.014.037-.029.057-.043.023-.017.048-.034.075-.051.028-.018.057-.036.088-.054.062-.034.131-.068.206-.098.028-.011.057-.022.087-.032s.06-.02.092-.029c.054-.016.111-.029.17-.041.048-.009.098-.017.15-.023.051-.006.104-.011.159-.014.027-.001.054-.002.082-.003h.038c.099 0 .19.004.274.011l.017.001c.034.003.066.007.098.011.048.006.094.013.138.021.028.005.054.01.08.015.041.009.079.018.116.028.027.007.053.015.078.022.03.01.059.019.087.029l.026.009c.014.005.032.011.053.02.028.011.062.024.101.041.023.01.048.021.074.033.023.01.047.022.071.033.01.005.021.01.031.016v.601c-.007-.004-.014-.009-.021-.013l-.042-.025c-.041-.025-.08-.048-.12-.07-.044-.023-.087-.045-.129-.065-.075-.036-.146-.065-.215-.09-.131-.047-.251-.077-.358-.096-.012-.002-.025-.004-.037-.006-.029-.004-.057-.008-.084-.011-.042-.004-.081-.007-.116-.008-.023-.001-.044-.002-.064-.002-.043 0-.087.001-.131.005-.053.003-.106.009-.16.018-.087.015-.174.037-.26.068-.012.004-.025.01-.038.014-.008.004-.016.007-.024.011-.014.005-.028.011-.042.018-.029.014-.059.029-.087.045-.014.008-.028.016-.043.026-.014.009-.028.018-.042.028-.018.012-.035.024-.052.038-.016.012-.033.026-.047.038l-.02.018-.01.01-.006.005-.007.007c-.027.027-.052.054-.074.081-.013.016-.025.031-.036.046s-.021.03-.031.045c-.009.014-.018.028-.027.042-.012.021-.023.043-.034.064-.009.018-.017.036-.024.053-.013.031-.024.062-.034.09-.007.023-.013.046-.018.067-.016.063-.024.12-.029.169-.002.019-.003.036-.004.053-.001.024-.001.045-.001.061 0 .011 0 .024.001.038.001.035.004.078.011.128.004.03.01.062.018.096.006.023.012.045.019.069.007.022.015.043.023.065.006.015.012.03.018.045.009.02.019.041.03.061.008.016.016.031.025.047.02.034.043.068.068.102.009.012.019.024.029.036.012.016.026.031.04.046.007.008.014.016.021.023.111.111.235.193.363.252.02.009.04.017.061.025.02.008.04.015.061.022.022.008.045.015.067.021.021.006.042.011.064.016.021.005.042.009.063.013.023.004.047.008.07.011s.046.005.069.007c.044.004.087.006.129.006h.042c.031-.001.061-.002.091-.004.02-.001.041-.003.061-.005.037-.003.074-.008.109-.013.031-.005.061-.01.089-.016.043-.008.082-.018.118-.027.023-.006.044-.013.063-.018.029-.009.054-.017.074-.023.033-.012.051-.019.051-.019.03-.01.059-.022.087-.033.039-.015.075-.032.11-.048.029-.013.057-.027.083-.039.022-.011.041-.021.06-.031.033-.017.061-.033.084-.045l.061-.033v.591s-.037.015-.1.039c-.028.011-.062.023-.099.036-.021.008-.043.016-.067.024-.019.006-.038.013-.058.019-.023.007-.046.015-.07.023-.017.005-.035.01-.053.015l-.016.005c-.018.005-.036.01-.054.015-.021.006-.043.011-.065.017-.014.003-.028.006-.043.01-.023.005-.047.01-.071.015s-.049.01-.074.014"/><path d="m0 0v-.867h.563s.011 0 .03.001c.019 0 .046.001.078.004.061.006.142.017.22.044.07.023.139.059.192.112.02.02.037.041.05.062.045.07.056.141.058.181.001.017.001.027.001.027s.001.008 0 .021c0 .017-.002.05-.011.084-.011.042-.031.089-.066.133-.007.008-.014.017-.022.024-.015.016-.032.031-.05.044-.031.023-.066.042-.105.059-.05.022-.107.038-.169.05-.032.006-.066.011-.1.014-.022.002-.043.003-.065.005-.019.001-.04.002-.06.002-.2 0-.544 0-.544 0" transform="translate(396.5677 450.57001)"/><path d="m0 0v-.822h.273s.018 0 .042.001c.019 0 .041.002.061.002.056.005.134.013.212.034.015.004.03.009.045.015.061.021.119.053.164.097.037.036.06.075.076.114.019.047.026.092.029.124.002.028.002.046.002.046s.001.014 0 .035c-.002.036-.01.094-.038.15-.014.027-.032.053-.058.078-.03.03-.067.054-.107.071-.077.034-.165.047-.239.052-.032.003-.062.003-.086.003z" transform="translate(396.5677 451.88831)"/><path d="m394.769 453.003h4.689v-4.413h-4.689zm1.23-.618v-3.178h1.196s.583-.016.905.306c.263.262.244.565.244.565s.019.317-.224.56c-.207.207-.471.262-.471.262s.119.056.211.147c.043.043.195.181.195.516 0 .337-.224.531-.224.531s-.246.291-.801.291z"/><path d="m0 0c.01.151.013.264.013.264.013.281.026.575.051.785.049.48.233 1.224.233 1.224.107.452.251.794.377 1.035.093.176.174.295.222.359.4.643 1.057 1.06 1.902 1.06 1.266 0 2.271-1.001 2.281-2.247.015-.365-.072-.754-.294-1.157-.463-.839-.611-1.003-.636-1.04-.319-.511-.474-.746-.57-.924-.061-.111-.087-.185-.179-.471l-.016-.048.05.01c.877.182 2.757.041 3.235-1.702.037-.124.084-.336.116-.559l.006-.102c.072-.543.014-1.393-.316-2.302-.034-.075-.177-.383-.346-.688-.155-.279-.401-.689-.678-.948-.001-.001-.107-.133-.325-.321-.222-.191-.549-.429-.966-.615-1.963-.886-4.748-.263-5.5 2.027-.365.936-.373 1.807-.29 2.439.069.533.203.911.256 1.044.075.242.209.503.297.668.108.199.209.361.209.361.236.362.441.642.593.878.138.214.185.324.204.409.038.163.059.388.071.561" transform="translate(400.49181 464.4016)"/></g><g fill-rule="evenodd"><path d="m0 0c-.105 0-.713-1.478-.713-1.478s1.004-.951 1.057-1.057c.053-.105 1.187 1.296 1.187 1.559s-1.426.976-1.531.976" transform="matrix(6.442113 0 0 -6.442113 55.96321556417 78.0570825875)"/><path d="m0 0c-1.359-1.457-3.558-1.36-4.925-.085-.93.867-1.043 2.12-.123 3.107.156.167.4.365.701.471.082.028.173.051.27.063l.032.004-.007.032c-.188.882.386 1.853.724 2.215 1.36 1.458 3.566 1.352 4.925.085.939-.876 1.04-2.123.122-3.107-.156-.167-.399-.366-.7-.471-.081-.028-.172-.051-.268-.063l-.032-.004.007-.032c.191-.885-.39-1.855-.726-2.215" transform="matrix(6.442113 0 0 -6.442113 299.83855097963 130.1222398535)"/><path d="m0 0c.445.477.849 1.493.283 2.021-.373.348-.736.466-1.093.8-.298.278-.299.665-.07.911.215.231.646.499.929.235.387-.362.418-1.031.798-1.385.276-.258.664-.02.872.203.633.678.576 1.469-.087 2.088-1.103 1.028-2.849 1.082-3.905-.05-.445-.477-.842-1.5-.283-2.021.38-.355.922-.458 1.18-.9.208-.358.167-.55-.01-.818-.179-.273-.653-.492-.936-.228-.38.355-.411 1.024-.798 1.385-.276.257-.664.02-.873-.203-.632-.678-.568-1.476.088-2.088 1.11-1.035 2.849-1.083 3.905.05" fill="#ffe400" transform="matrix(6.442113 0 0 -6.442113 296.440271951 126.95342888993)"/><path d="m0 0c.529-.122 1.073-.481 1.34-.908.618-.989-.805-3.287-2.238-2.735-1.073.414-1.275 1.555-.909 2.652.322.965 1.182 1.135 1.807.991" transform="matrix(6.442113 0 0 -6.442113 251.89943824787 34.9793171678)"/><path d="m0 0c-.208-1.197-1.378-3.278-2.992-3.124-.842.08-2.702.931-1.251 2.96.218.306.428.527.657.736.2.181.427.363.722.619 1.132.985 3.311 1.376 2.864-1.191" transform="matrix(6.442113 0 0 -6.442113 251.48662764683 65.67978645947)"/><path d="m0 0c-.3-.9-.056-1.448.43-1.635.584-.226 1.529 1.108 1.256 1.545-.273.436-1.386.99-1.686.09" fill="#ffe400" transform="matrix(6.442113 0 0 -6.442113 245.2280504462 43.021651037)"/><path d="m0 0c-2.588.503-3.534 2.633-3.175 4.477.456 2.348 2.538 3.167 4.398 2.805 1.021-.224 2.406-1.281 2.011-3.312-.064-.332-.277-.75-.55-1.072-.061-.071-.147-.163-.256-.256l-.298-.252.053-.388.006-.053c.029-.343-.043-.736-.209-1.038-.192-.348-.33-.559-.53-.704-.398-.291-.896-.315-1.45-.207" transform="matrix(6.442113 0 0 -6.442113 263.5333145357 106.2567880337)"/><path d="m0 0c-1.569.305-3.184-.372-3.548-2.244-.292-1.5.45-3.221 2.611-3.641.942-.183 1.033.219 1.219.555.185.336.201 1.005-.173 1.065-.374.059-.754-.058-1.151.019-.609.119-1.249 1.421-.576 1.29.379-.074 1.063-.482 1.909-.646.584-.114 1.096.744 1.17 1.123.306 1.577-.733 2.324-1.461 2.479" fill="#ffe400" transform="matrix(6.442113 0 0 -6.442113 270.4469902073 63.83553834983)"/><path d="m0 0c-.246-.37-.188-1.118.312-1.182.5-.065 1.428.455 1.056 1.032-.352.548-.995.71-1.368.15" fill="#462682" transform="matrix(6.442113 0 0 -6.442113 262.50908298983 71.03253815117)"/></g><path d="m0 0c-.057.09-.239.467-.239.467-.25.57-.363 1.193-.341 1.808.088 2.531 2.126 3.733 4.137 3.663 1.097-.065 2.716-.934 2.639-3.121-.012-.352-.164-.822-.395-1.203-.057-.093-.141-.215-.253-.34l-.275-.307.129-.39c.011-.033.02-.062.026-.086.088-.352.077-.772-.045-1.112-.141-.391-.248-.632-.431-.817-.358-.359-.865-.468-1.464-.447-1.56.055-2.689.731-3.351 1.656 0 0-.08.139-.137.229" transform="matrix(6.442113 0 0 -6.442113 145.7231730482 60.5880047654)"/><path d="m0 0c-.057.09-.239.467-.239.467-.25.57-.363 1.193-.341 1.808.088 2.531 2.126 3.733 4.137 3.663 1.097-.065 2.716-.934 2.639-3.121-.012-.352-.164-.822-.395-1.203-.057-.093-.141-.215-.253-.34l-.275-.307.129-.39c.011-.033.02-.062.026-.086.088-.352.077-.772-.045-1.112-.141-.391-.248-.632-.431-.817-.358-.359-.865-.468-1.464-.447-1.56.055-2.689.731-3.351 1.656 0 0-.08.139-.137.229z" fill="none" stroke="#000" stroke-miterlimit="3.864" stroke-width=".095" transform="matrix(6.442113 0 0 -6.442113 145.7231730482 60.5880047654)"/><path d="m0 0c-.104.025-.497.17-.497.17-.575.237-1.089.606-1.501 1.063-1.695 1.883-1.063 4.163.432 5.51.834.715 2.602 1.214 4.066-.412.236-.262.454-.706.551-1.14.024-.107.049-.253.056-.421l.015-.411.364-.191c.03-.017.056-.032.078-.045.307-.191.592-.501.739-.83.171-.38.261-.627.258-.887-.008-.507-.297-.938-.743-1.339-1.16-1.045-2.441-1.342-3.56-1.136 0 0-.154.044-.258.069" transform="matrix(6.442113 0 0 -6.442113 118.0923061799 67.8308724113)"/><path d="m0 0c-.104.025-.497.17-.497.17-.575.237-1.089.606-1.501 1.063-1.695 1.883-1.063 4.163.432 5.51.834.715 2.602 1.214 4.066-.412.236-.262.454-.706.551-1.14.024-.107.049-.253.056-.421l.015-.411.364-.191c.03-.017.056-.032.078-.045.307-.191.592-.501.739-.83.171-.38.261-.627.258-.887-.008-.507-.297-.938-.743-1.339-1.16-1.045-2.441-1.342-3.56-1.136 0 0-.154.044-.258.069z" fill="none" stroke="#000" stroke-miterlimit="3.864" stroke-width=".095" transform="matrix(6.442113 0 0 -6.442113 118.0923061799 67.8308724113)"/><path d="m0 0c-1.716.06-3.314-.93-3.386-2.976-.057-1.64 1.019-3.339 3.38-3.422 1.031-.036 1.06.405 1.2.793.139.388.045 1.1-.362 1.1s-.79-.187-1.224-.172c-.666.023-1.563 1.296-.827 1.27.414-.014 1.208-.332 2.133-.364.638-.022 1.037.974 1.051 1.387.06 1.724-1.167 2.342-1.965 2.384" fill="#ffe400" fill-rule="evenodd" transform="matrix(6.442113 0 0 -6.442113 168.3878150048 26.9221664387)"/><path d="m0 0c-.149-.446.491-.901.971-.885.48.015 1.055.205 1.004.829-.085 1.05-1.743.75-1.975.056" fill="#462682" fill-rule="evenodd" transform="matrix(6.442113 0 0 -6.442113 162.2214244412 39.7290870827)"/><path d="m0 0c-1.76-.846-5.938-1.476-7.763 2.953-1.791 4.347.592 5.981 2.156 6.777 1.483.756 3.982.805 4.835-.349.286-.388.306-.832.267-1.168s-.149-.672-.245-.94l-.367-1.006.915-.115c.067-.009.131-.017.178-.025.346-.057.799-.137 1.225-.332.449-.206.871-.539 1.166-1.084 1.234-2.28-.838-3.976-2.367-4.711" fill-rule="evenodd" transform="matrix(6.442113 0 0 -6.442113 103.8668322533 96.79068277037)"/><path d="m0 0c.129-.574.388-1.162.659-1.494.661-.811 1.213-.94 1.811-.732.021.022.092.091.124.163.07.154.122.374.168.671.049.313.084.637.135.925.038.207.092.456.195.688-.534-.51-1.314-.846-2.084-.711-.461.081-.781.269-1.008.49m3.559.821c.454.333 1.015.25 1.491-.027.48-.278.987-.796 1.467-1.305.862-.915.518-2.105.161-2.84-.393-.81-1.018-1.553-1.452-1.948-.202-.184-.525-.508-.953-.828-.447-.335-1.031-.685-1.739-.869-1.492-.39-3.313.014-5.269 2.144-4.054 4.415-1.194 8.136.157 9.454.87.847 1.905.9 2.887.561.92-.317 1.826-.983 2.608-1.613 1.058-.852 1.077-1.937.642-2.729" fill-rule="evenodd" transform="matrix(6.442113 0 0 -6.442113 31.0715995646 90.83636656673)"/><path d="m0 0c1.251-.22 2.978 1.536 1.417 2.792-1.561 1.257-3.254 2.347-4.565 1.068-1.312-1.279-3.766-4.537-.164-8.46 3.602-3.924 6.193-1.067 6.962-.367s2.284 2.714 1.288 3.771c-.996 1.056-1.715 1.704-2.187 1.039-.472-.666-.151-2.632-1.091-2.959-.939-.326-1.802-.02-2.617.979s-1.301 3.262-.523 3.459c.778.196.229-1.102 1.48-1.322" fill="#ffe400" fill-rule="evenodd" transform="matrix(6.442113 0 0 -6.442113 38.03816498393 89.4647762879)"/><g transform="matrix(6.442113 0 0 -6.442113 -2392.02742 3022.18325)"><path d="m0 0c-1.276-1.149-1.738-2.971-.369-4.493 1.098-1.219 3.053-1.694 4.809-.113.766.69.481 1.027.312 1.403-.169.377-.732.823-1.024.54-.293-.282-.438-.683-.761-.974-.495-.446-2.025-.153-1.478.34.308.277 1.1.6 1.788 1.219.474.427.069 1.421-.208 1.729-1.154 1.281-2.466.873-3.069.349" fill="#ffe400" fill-rule="evenodd" transform="translate(388.54311 464.80299)"/><path d="m0 0c.189-.438 1.023-.264 1.402.123.378.387.713.974.239 1.383-.8.689-1.935-.826-1.641-1.506" fill="#462682" fill-rule="evenodd" transform="translate(388.7155 462.63789)"/><path d="m0 0c1.096.953 1.86.678 1.659-.481-.202-1.16-1.221-2.54-2.114-2.454-.668.064-1.519.486-.667 1.678.358.501.544.755 1.122 1.257" fill="#ffe400" fill-rule="evenodd" transform="translate(407.88921 459.5544)"/><path d="m0 0c.088.322.427.868.427.868.476.727.8 1.096.9 1.533.111.484.09.697.09.697.016.33.027.73.059.992.041.434.215 1.13.215 1.13.183.779.484 1.137.484 1.137.266.45.687.723 1.257.723.843 0 1.498-.663 1.498-1.482.01-.216-.036-.467-.198-.759-.441-.801-.583-.957-.606-.992-.678-1.086-.648-.991-.843-1.597-.082-.227-.136-.425-.092-.621.073-.333.352-.463.563-.475.085-.006.197.009.323.036.041.009.086.021.133.026.741.168 2.034-.012 2.34-1.146.029-.098.064-.24.09-.419l.005-.106c.059-.41.034-1.113-.26-1.925-.06-.13-.482-1.031-.835-1.362l-.023-.021s-.113-.136-.278-.278c-.18-.154-.443-.345-.775-.493-1.691-.766-3.89-.15-4.442 1.575-.628 1.584-.032 2.959-.032 2.959" fill="#ffe400" transform="translate(399.85789 461.2646)"/><g fill-rule="evenodd"><path d="m0 0c-.456-.475-1.473-.987-2.14-.349-.666.637-.743 2.108-.039 2.263.704.156 3.54-.497 2.179-1.914" fill="#462682" transform="translate(404.7364 459.118)"/><path d="m0 0c-1.386-.706-3.392-1.996-1.809-5.839 1.584-3.842 5.164-3.336 6.761-2.568 1.53.735 2.915 2.073 2.038 3.693-.833 1.54-2.978.615-3.468 1.859-.215.543.901 2.025.384 2.725-.517.699-2.52.836-3.906.13" fill="#ffe400" transform="translate(382.1619 463.1772)"/><path d="m0 0c.584.672.451 2.064-.275 2.253-1.038.269-1.813-1.196-1.528-1.675.285-.478 1.219-1.25 1.803-.578" fill="#462682" transform="translate(383.66859 459.77271)"/><path d="m0 0c-.21-.581-.886-1.408-1.7-1.116-.814.293-1.441 1.523-.897 1.925s3.223.924 2.597-.809" fill="#462682" transform="translate(386.33099 457.13451)"/></g><path d="m0 0v-.867h.563s.011 0 .03.001c.019 0 .046.001.078.004.061.006.142.017.22.044.07.023.139.059.192.112.02.02.037.041.05.062.045.07.056.141.058.181.001.017.001.027.001.027s.001.008 0 .021c0 .017-.002.05-.011.084-.011.042-.031.089-.066.133-.007.008-.014.017-.022.024-.015.016-.032.031-.05.044-.031.023-.066.042-.105.059-.05.022-.107.038-.169.05-.032.006-.066.011-.1.014-.022.002-.043.003-.065.005-.019.001-.04.002-.06.002-.199 0-.544 0-.544 0" transform="translate(391.16479 450.57001)"/><path d="m0 0v-.822h.273s.018 0 .042.001c.019 0 .041.002.061.002.056.005.134.013.212.034.015.004.03.009.045.015.061.021.119.053.164.097.037.036.06.075.076.114.019.047.026.092.029.124.002.028.002.046.002.046s.001.014 0 .035c-.002.036-.01.094-.038.15-.014.027-.032.053-.058.078-.03.03-.067.054-.107.071-.077.034-.165.047-.239.052-.032.003-.061.003-.086.003z" transform="translate(391.16479 451.88831)"/><path d="m389.366 453.003h4.689v-4.413h-4.689zm1.23-.618v-3.178h1.196s.583-.016.905.306c.263.262.244.565.244.565s.019.317-.224.56c-.207.207-.471.262-.471.262s.119.056.211.147c.043.043.195.181.195.516 0 .337-.224.531-.224.531s-.246.291-.801.291z"/></g></svg>